<svg width="5" height="8" viewBox="0 0 5 8" fill="none" xmlns="http://www.w3.org/2000/svg">
<path fill-rule="evenodd" clip-rule="evenodd" d="M0.294046 1.69817C0.200832 1.60626 0.126814 1.49673 0.076293 1.37596C0.025772 1.25519 -0.000244141 1.12559 -0.000244141 0.994675C-0.000244141 0.863763 0.025772 0.734157 0.076293 0.613387C0.126814 0.492617 0.200832 0.383092 0.294046 0.291175C0.483065 0.104608 0.737962 0 1.00355 0C1.26913 0 1.52403 0.104608 1.71305 0.291175L4.67805 3.23117C4.78024 3.33251 4.86136 3.45307 4.91671 3.58592C4.97207 3.71877 5.00057 3.86126 5.00057 4.00517C5.00057 4.14909 4.97207 4.29158 4.91671 4.42443C4.86136 4.55727 4.78024 4.67784 4.67805 4.77917L1.72305 7.70917C1.53398 7.89604 1.27887 8.00084 1.01305 8.00084C0.747218 8.00084 0.492109 7.89604 0.303047 7.70917C0.209833 7.61726 0.135814 7.50773 0.0852928 7.38696C0.0347718 7.26619 0.00875568 7.13658 0.00875568 7.00567C0.00875568 6.87476 0.0347718 6.74516 0.0852928 6.62439C0.135814 6.50362 0.209833 6.39409 0.303047 6.30217L2.62105 4.00517L0.294046 1.69817Z" fill="#4D77FF"/>
</svg>
