<svg width="18" height="20" viewBox="0 0 18 20" fill="none" xmlns="http://www.w3.org/2000/svg">
<path d="M10.2207 12C10.2207 11.4477 9.755 11 9.18052 11C8.60604 11 8.14033 11.4477 8.14033 12V14C8.14033 14.5523 8.60604 15 9.18052 15C9.755 15 10.2207 14.5523 10.2207 14V12Z" fill="black"/>
<path fill-rule="evenodd" clip-rule="evenodd" d="M3.97958 6.12037C2.228 6.53217 0.859009 7.95979 0.859009 9.76923V15.3077C0.859009 17.973 3.26751 20 6.05995 20H12.3011C15.0935 20 17.502 17.973 17.502 15.3077V9.76923C17.502 7.95979 16.133 6.53217 14.3815 6.12037V5C14.3815 2.23858 12.0529 0 9.18052 0C6.30812 0 3.97958 2.23858 3.97958 5V6.12037ZM12.3011 5V6H6.05995V5C6.05995 4.64936 6.12253 4.31278 6.23752 4C6.66591 2.83481 7.82181 2 9.18052 2C10.5392 2 11.6951 2.83481 12.1235 4C12.2385 4.31278 12.3011 4.64936 12.3011 5ZM2.93939 9.76923C2.93939 8.86597 3.79084 8 5.01977 8H13.3413C14.5702 8 15.4217 8.86597 15.4217 9.76923V15.3077C15.4217 16.7208 14.1045 18 12.3011 18H6.05995C4.25655 18 2.93939 16.7208 2.93939 15.3077V9.76923Z" fill="black"/>
</svg>
