<svg width="24" height="24" viewBox="0 0 24 24" fill="none" xmlns="http://www.w3.org/2000/svg">
<rect y="0.0302429" width="23.9063" height="23.1818" rx="11.5909" fill="#DFE1E6"/>
<path d="M9.41728 14.1434H8.68966V12.4936H7.0321V11.731H8.68966V10.0851H9.41728V11.731H11.0787V12.4936H9.41728V14.1434Z" fill="#42526E"/>
<path d="M14.1232 11.1356H14.8042C14.9546 11.1356 15.0921 11.1136 15.2166 11.0695C15.3437 11.0254 15.4514 10.9644 15.5396 10.8866C15.6304 10.8088 15.7004 10.7154 15.7497 10.6064C15.799 10.4949 15.8236 10.373 15.8236 10.2407C15.8236 10.111 15.799 9.99295 15.7497 9.88659C15.703 9.78024 15.6355 9.68945 15.5473 9.61422C15.4591 9.539 15.3528 9.48063 15.2283 9.43913C15.1038 9.39762 14.965 9.37687 14.8119 9.37687C14.6589 9.37687 14.5201 9.39762 14.3956 9.43913C14.2711 9.48063 14.1621 9.54029 14.0688 9.61811C13.978 9.69334 13.9053 9.78672 13.8509 9.89826C13.7964 10.0072 13.764 10.1304 13.7536 10.2679H12.9248C12.9404 10.0137 12.9949 9.78543 13.0882 9.58309C13.1842 9.38076 13.3152 9.20826 13.4812 9.06559C13.6472 8.92292 13.8444 8.81397 14.0727 8.73875C14.3035 8.66352 14.559 8.62591 14.8392 8.62591C15.0986 8.62591 15.3411 8.66352 15.5668 8.73875C15.7925 8.81397 15.987 8.91903 16.1504 9.05392C16.3165 9.18621 16.4462 9.34315 16.5395 9.52473C16.6355 9.70631 16.6835 9.90216 16.6835 10.1123C16.6835 10.2783 16.6602 10.4326 16.6135 10.5753C16.5668 10.718 16.4993 10.8464 16.4111 10.9605C16.3255 11.072 16.2205 11.1667 16.096 11.2445C15.9741 11.3224 15.8353 11.3781 15.6796 11.4119V11.478C15.8716 11.5014 16.0428 11.5506 16.1932 11.6259C16.3463 11.6985 16.476 11.7945 16.5823 11.9138C16.6887 12.0305 16.7704 12.168 16.8275 12.3262C16.8845 12.4845 16.9131 12.657 16.9131 12.8437C16.9131 13.0824 16.8599 13.3042 16.7536 13.5091C16.6498 13.7114 16.5058 13.8878 16.3217 14.0383C16.1375 14.1861 15.9196 14.3016 15.668 14.3846C15.4189 14.4702 15.1479 14.513 14.8547 14.513C14.559 14.513 14.2893 14.4728 14.0454 14.3924C13.8016 14.3145 13.5902 14.203 13.4112 14.0577C13.2348 13.9125 13.0947 13.7387 12.991 13.5363C12.8872 13.3314 12.8288 13.1031 12.8159 12.8515H13.6524C13.6654 12.989 13.703 13.1122 13.7653 13.2212C13.8301 13.3301 13.9144 13.4235 14.0182 13.5013C14.1219 13.5791 14.2439 13.6388 14.3839 13.6803C14.5266 13.7218 14.6835 13.7426 14.8547 13.7426C15.026 13.7426 15.1829 13.7192 15.3256 13.6725C15.4682 13.6258 15.5914 13.561 15.6952 13.478C15.799 13.395 15.8794 13.2951 15.9364 13.1784C15.9935 13.0616 16.022 12.9345 16.022 12.7971C16.022 12.6518 15.9948 12.5221 15.9403 12.408C15.8859 12.2912 15.8067 12.1927 15.703 12.1122C15.5992 12.0292 15.4734 11.9657 15.3256 11.9216C15.1803 11.8775 15.0156 11.8554 14.8314 11.8554H14.1232V11.1356Z" fill="#42526E"/>
</svg>
