<svg class="" width="24" height="18" viewBox="0 0 24 18" fill="none" xmlns="http://www.w3.org/2000/svg"><path d="M7.26343 4.37994L3.65965 8.08461L11.9994 17.8096L20.3397 8.08461L16.736 4.37994H7.26343ZM16.2868 4.88627L15.3246 8.02723L12.5594 4.88627H16.2868ZM15.1425 8.5864L15.1359 8.60348C14.2124 8.67368 13.1688 8.72039 11.9994 8.72039C10.8304 8.72039 9.78677 8.67368 8.86354 8.60348L8.85687 8.5864L11.9994 5.01625L15.1425 8.5864ZM11.4397 4.88627L8.67484 8.02696L7.71264 4.88627H11.4397ZM7.25329 5.11607L8.3073 8.55677C6.39251 8.38168 5.09561 8.11104 4.4852 7.9613L7.25329 5.11607ZM4.71474 8.53756C5.46234 8.70517 6.73362 8.93845 8.50695 9.08632L11.2315 16.1372L4.71474 8.53756ZM9.06612 9.12742C9.93944 9.18747 10.9139 9.22644 11.9994 9.22644C13.0852 9.22644 14.0597 9.18721 14.9333 9.12742L11.9994 16.7191L9.06612 9.12742ZM12.7673 16.1372L15.4924 9.08632C17.2658 8.93845 18.5371 8.70517 19.2847 8.53756L12.7673 16.1372ZM19.5142 7.96157C18.9038 8.11104 17.6069 8.38195 15.6924 8.55704L16.7464 5.11634L19.5142 7.96157ZM23.9913 7.16165C23.9547 7.02686 23.8173 6.94599 23.6814 6.98256L22.0725 7.41254C21.9374 7.44858 21.8571 7.58737 21.8931 7.72215C21.9238 7.83532 22.0255 7.91006 22.1379 7.91006C22.1592 7.91006 22.1814 7.90739 22.203 7.90152L23.8119 7.47153C23.947 7.43523 24.0276 7.29644 23.9913 7.16165ZM18.1639 3.17806C18.2021 3.19835 18.2424 3.20769 18.283 3.20769C18.3734 3.20769 18.461 3.15911 18.5064 3.07343L19.255 1.6663C19.3207 1.54299 19.2737 1.38979 19.1507 1.32413C19.0282 1.259 18.8739 1.30491 18.8082 1.42875L18.0593 2.83589C17.9939 2.95893 18.0409 3.11214 18.1639 3.17806ZM1.92716 7.41227L0.318243 6.98229C0.18559 6.94626 0.0449299 7.02633 0.00863049 7.16138C-0.027402 7.29644 0.0526701 7.43496 0.187725 7.47099L1.79664 7.90098C1.81826 7.90685 1.84041 7.90952 1.86203 7.90952C1.9736 7.90952 2.07609 7.83479 2.10625 7.72162C2.14229 7.5871 2.06221 7.44857 1.92716 7.41227ZM5.49304 3.07343C5.53841 3.15884 5.62596 3.20769 5.71644 3.20769C5.75701 3.20769 5.79758 3.19835 5.83548 3.17806C5.95852 3.1124 6.0055 2.9592 5.93984 2.83589L5.1909 1.42875C5.12524 1.30464 4.97097 1.2582 4.84846 1.32413C4.72541 1.38979 4.67844 1.54299 4.7441 1.6663L5.49304 3.07343ZM11.9994 2.05705C12.1393 2.05705 12.2525 1.94388 12.2525 1.80402V0.253028C12.2525 0.113169 12.1393 0 11.9994 0C11.8596 0 11.7464 0.113169 11.7464 0.253028V1.80402C11.7464 1.94388 11.8596 2.05705 11.9994 2.05705Z" fill="#4D77FF"/>
</svg>