<svg width="69" height="29" viewBox="0 0 69 29" fill="none" xmlns="http://www.w3.org/2000/svg">
<path d="M8.38351 11.811L8.37504 13.4094H0.780518V1.23108H8.37504V2.82949H2.76796V6.49991H7.25028V8.04758H2.76796V11.811H8.38351Z" fill="#1D1929"/>
<path d="M17.5962 13.4094H15.854C15.7131 13.4094 15.6003 13.3728 15.5157 13.2995C15.4368 13.2262 15.372 13.1444 15.3212 13.0542L13.3338 9.86586C13.2831 10.0576 13.2154 10.2238 13.1308 10.3648L11.3295 13.0542C11.2675 13.1444 11.197 13.2262 11.118 13.2995C11.0447 13.3728 10.946 13.4094 10.822 13.4094H9.19824L12.1836 8.96092L9.31666 4.78308H11.0588C11.1998 4.78308 11.3012 4.80564 11.3632 4.85074C11.4309 4.89021 11.4901 4.95223 11.5409 5.0368L13.4945 8.08141C13.5452 7.89531 13.6242 7.71775 13.7313 7.5486L15.3804 5.07062C15.4932 4.87893 15.637 4.78308 15.8117 4.78308H17.4778L14.6108 8.88482L17.5962 13.4094Z" fill="#1D1929"/>
<path d="M20.645 11.2444C20.8987 11.5714 21.175 11.8026 21.4738 11.9379C21.7782 12.0675 22.1137 12.1324 22.4802 12.1324C23.1906 12.1324 23.7431 11.873 24.1378 11.3544C24.5381 10.8357 24.7382 10.0632 24.7382 9.03706C24.7382 8.50712 24.6931 8.05608 24.6029 7.68394C24.5128 7.3062 24.3831 6.99888 24.2139 6.7621C24.0448 6.5253 23.839 6.35334 23.5965 6.24621C23.3541 6.13909 23.0806 6.08553 22.7762 6.08553C22.3139 6.08553 21.9136 6.18701 21.5753 6.38999C21.2426 6.58732 20.9325 6.87205 20.645 7.24419V11.2444ZM20.552 6.03478C20.9128 5.61192 21.3215 5.27082 21.7782 5.01147C22.2406 4.75211 22.7762 4.62244 23.3851 4.62244C23.87 4.62244 24.3098 4.7211 24.7044 4.91844C25.0991 5.11013 25.4374 5.39204 25.7193 5.76416C26.0012 6.13627 26.2182 6.5986 26.3705 7.15114C26.5284 7.69803 26.6073 8.32669 26.6073 9.03706C26.6073 9.67419 26.5199 10.269 26.3451 10.8216C26.176 11.3685 25.9307 11.8449 25.6093 12.2508C25.2879 12.6511 24.8989 12.9669 24.4423 13.198C23.9856 13.4235 23.4697 13.5363 22.8946 13.5363C22.3872 13.5363 21.9559 13.4546 21.6006 13.291C21.2511 13.1275 20.9325 12.902 20.645 12.6145V16.2765H18.8267V4.78312H19.9261C20.1742 4.78312 20.3321 4.89871 20.3997 5.12986L20.552 6.03478Z" fill="#1D1929"/>
<path d="M34.032 8.12372C34.032 7.81927 33.9869 7.53738 33.8967 7.27799C33.8121 7.01299 33.6853 6.78467 33.5161 6.59298C33.347 6.39564 33.1356 6.24341 32.8818 6.13629C32.6337 6.02353 32.3462 5.96715 32.0192 5.96715C31.3595 5.96715 30.8408 6.15602 30.4631 6.53378C30.0853 6.91152 29.8457 7.44152 29.7442 8.12372H34.032ZM29.6935 9.24006C29.7161 9.73061 29.7922 10.1563 29.9218 10.5171C30.0515 10.8723 30.2234 11.1683 30.4377 11.4051C30.6576 11.6419 30.917 11.8195 31.2158 11.9379C31.5202 12.0507 31.8585 12.1071 32.2306 12.1071C32.5858 12.1071 32.8931 12.0676 33.1525 11.9887C33.4118 11.9041 33.6373 11.8139 33.829 11.7181C34.0208 11.6165 34.1842 11.5263 34.3195 11.4474C34.4548 11.3628 34.5789 11.3206 34.6917 11.3206C34.8383 11.3206 34.951 11.3769 35.03 11.4897L35.5458 12.1578C35.3316 12.4115 35.0892 12.6257 34.8185 12.8006C34.5479 12.9753 34.2603 13.1191 33.9559 13.2319C33.6514 13.339 33.3385 13.4151 33.0172 13.4602C32.6958 13.511 32.3829 13.5363 32.0784 13.5363C31.4808 13.5363 30.9254 13.4376 30.4123 13.2403C29.9049 13.0373 29.4623 12.7413 29.0845 12.3523C28.7125 11.9633 28.4193 11.4812 28.205 10.9062C27.9964 10.331 27.8921 9.6686 27.8921 8.91872C27.8921 8.32104 27.9851 7.76287 28.1712 7.24421C28.3629 6.72548 28.6335 6.27443 28.9831 5.89103C29.3382 5.50764 29.7668 5.206 30.2686 4.98611C30.776 4.76059 31.3483 4.64783 31.9854 4.64783C32.5153 4.64783 33.0059 4.73522 33.4569 4.91C33.9079 5.07914 34.297 5.33004 34.624 5.66269C34.951 5.99533 35.2047 6.4041 35.3851 6.88896C35.5712 7.36823 35.6642 7.91512 35.6642 8.5297C35.6642 8.81159 35.6333 9.00043 35.5712 9.09628C35.5092 9.19214 35.3964 9.24006 35.2329 9.24006H29.6935Z" fill="#1D1929"/>
<path d="M39.0766 6.38153C39.3473 5.83463 39.6743 5.40613 40.0577 5.09603C40.4411 4.7803 40.9006 4.62244 41.4362 4.62244C41.6222 4.62244 41.7971 4.64499 41.9605 4.6901C42.1241 4.72956 42.2707 4.79158 42.4003 4.87615L42.2735 6.24621C42.2509 6.34206 42.2143 6.40972 42.1635 6.44919C42.1184 6.48302 42.0564 6.49993 41.9775 6.49993C41.8929 6.49993 41.7717 6.48583 41.6138 6.45764C41.456 6.42382 41.2896 6.4069 41.1148 6.4069C40.8611 6.4069 40.6356 6.44355 40.4383 6.51684C40.2466 6.59014 40.0718 6.69726 39.9139 6.83822C39.7617 6.97919 39.6264 7.15114 39.508 7.35413C39.3896 7.55705 39.2796 7.78821 39.1782 8.0476V13.4094H37.3599V4.78312H38.417C38.6087 4.78312 38.7412 4.81977 38.8145 4.89306C38.8878 4.96072 38.9385 5.08194 38.9667 5.25672L39.0766 6.38153Z" fill="#1D1929"/>
<path d="M51.9763 13.4095H50.158V6.21244H45.9548V11.1091C45.9548 11.4192 46.0309 11.6561 46.1831 11.8196C46.3354 11.983 46.5383 12.0648 46.792 12.0648C46.933 12.0648 47.0542 12.0479 47.1557 12.0141C47.2572 11.9746 47.3446 11.9352 47.4179 11.8957C47.4912 11.8506 47.5532 11.8111 47.6039 11.7772C47.6603 11.7378 47.7138 11.7181 47.7646 11.7181C47.8661 11.7181 47.9479 11.7744 48.0099 11.8872L48.5511 12.7752C48.2692 13.0233 47.9366 13.215 47.5532 13.3503C47.1698 13.48 46.7751 13.5448 46.3692 13.5448C45.6531 13.5448 45.1006 13.3447 44.7116 12.9444C44.3282 12.5384 44.1365 11.9689 44.1365 11.236V6.21244H43.1893C43.0878 6.21244 43.0004 6.18143 42.9271 6.11942C42.8538 6.05176 42.8171 5.95309 42.8171 5.82341V5.08763L44.2126 4.88466L44.6101 2.3898C44.6383 2.29395 44.6862 2.21783 44.7538 2.16146C44.8215 2.09943 44.9117 2.06842 45.0245 2.06842H45.9548V4.90158H51.9763V13.4095ZM52.3484 2.13608C52.3484 2.29959 52.3146 2.45463 52.2469 2.60122C52.1849 2.74218 52.0975 2.86904 51.9848 2.9818C51.872 3.08893 51.7395 3.17632 51.5873 3.24397C51.4407 3.30599 51.2856 3.337 51.1221 3.337C50.9586 3.337 50.8035 3.30599 50.657 3.24397C50.516 3.17632 50.3892 3.08893 50.2764 2.9818C50.1693 2.86904 50.0819 2.74218 50.0142 2.60122C49.9522 2.45463 49.9212 2.29959 49.9212 2.13608C49.9212 1.96694 49.9522 1.80907 50.0142 1.66248C50.0819 1.51025 50.1693 1.38057 50.2764 1.27345C50.3892 1.16069 50.516 1.0733 50.657 1.01128C50.8035 0.943619 50.9586 0.90979 51.1221 0.90979C51.2856 0.90979 51.4407 0.943619 51.5873 1.01128C51.7395 1.0733 51.872 1.16069 51.9848 1.27345C52.0975 1.38057 52.1849 1.51025 52.2469 1.66248C52.3146 1.80907 52.3484 1.96694 52.3484 2.13608Z" fill="#1D1929"/>
<path d="M59.4245 6.34772C59.3794 6.42665 59.3286 6.48304 59.2722 6.51686C59.2159 6.55069 59.1454 6.5676 59.0608 6.5676C58.965 6.5676 58.8606 6.53941 58.7479 6.48304C58.6351 6.42101 58.5026 6.35336 58.3504 6.28006C58.1982 6.20677 58.0178 6.14193 57.8092 6.08555C57.6062 6.02353 57.3666 5.99252 57.0903 5.99252C56.8648 5.99252 56.659 6.02071 56.4729 6.07709C56.2925 6.12783 56.1375 6.20394 56.0078 6.30543C55.8837 6.40128 55.7879 6.51686 55.7202 6.65218C55.6526 6.78185 55.6187 6.9228 55.6187 7.07506C55.6187 7.27799 55.6808 7.44713 55.8048 7.58244C55.9288 7.7178 56.0923 7.83616 56.2953 7.93768C56.4983 8.03354 56.7294 8.12091 56.9888 8.19982C57.2481 8.27878 57.5131 8.36335 57.7837 8.45354C58.0544 8.54378 58.3194 8.64805 58.5787 8.76646C58.8381 8.88488 59.0693 9.03146 59.2722 9.20622C59.4752 9.37537 59.6387 9.58402 59.7628 9.83207C59.8868 10.0745 59.9488 10.3705 59.9488 10.7201C59.9488 11.126 59.8755 11.501 59.7289 11.8449C59.5823 12.1888 59.3681 12.4876 59.0862 12.7413C58.8043 12.9951 58.4519 13.1924 58.0291 13.3334C57.6118 13.4743 57.1326 13.5448 56.5913 13.5448C56.2925 13.5448 56.0021 13.5166 55.7202 13.4602C55.4439 13.4095 55.179 13.339 54.9253 13.2488C54.6772 13.1529 54.4432 13.0402 54.2233 12.9105C54.009 12.7808 53.8173 12.6399 53.6482 12.4876L54.0711 11.7941C54.1218 11.7096 54.1839 11.6448 54.2572 11.5996C54.3361 11.5489 54.4319 11.5235 54.5447 11.5235C54.6631 11.5235 54.7787 11.563 54.8914 11.6419C55.0098 11.7152 55.1451 11.797 55.2973 11.8872C55.4552 11.9774 55.6441 12.062 55.864 12.1409C56.0839 12.2142 56.3573 12.2509 56.6844 12.2509C56.955 12.2509 57.1889 12.2198 57.3863 12.1578C57.5836 12.0901 57.7471 11.9999 57.8768 11.8872C58.0065 11.7744 58.1023 11.6476 58.1644 11.5066C58.2264 11.36 58.2574 11.2049 58.2574 11.0415C58.2574 10.8216 58.1953 10.6412 58.0713 10.5002C57.9473 10.3593 57.7809 10.238 57.5723 10.1365C57.3694 10.0351 57.1354 9.94482 56.8704 9.86592C56.6111 9.78695 56.3461 9.70238 56.0755 9.6122C55.8048 9.52195 55.537 9.41768 55.272 9.29927C55.0126 9.18085 54.7787 9.03146 54.57 8.85104C54.3671 8.665 54.2036 8.44226 54.0795 8.18293C53.9555 7.91793 53.8935 7.59658 53.8935 7.21878C53.8935 6.87488 53.9611 6.54787 54.0964 6.23777C54.2374 5.92768 54.4404 5.65423 54.7053 5.41743C54.976 5.18063 55.3058 4.99457 55.6948 4.85925C56.0895 4.7183 56.5434 4.64783 57.0564 4.64783C57.6372 4.64783 58.1644 4.74085 58.638 4.92691C59.1116 5.11297 59.5091 5.36669 59.8304 5.68806L59.4245 6.34772Z" fill="#1D1929"/>
<path d="M67.3159 8.12372C67.3159 7.81927 67.2705 7.53738 67.1804 7.27799C67.0957 7.01299 66.9691 6.78467 66.7996 6.59298C66.6307 6.39564 66.4194 6.24341 66.1652 6.13629C65.9175 6.02353 65.6298 5.96715 65.3027 5.96715C64.6432 5.96715 64.1246 6.15602 63.7468 6.53378C63.3689 6.91152 63.129 7.44152 63.0276 8.12372H67.3159ZM62.9768 9.24006C62.9995 9.73061 63.0759 10.1563 63.2054 10.5171C63.3349 10.8723 63.5068 11.1683 63.7211 11.4051C63.9413 11.6419 64.2004 11.8195 64.4994 11.9379C64.8038 12.0507 65.1422 12.1071 65.514 12.1071C65.8697 12.1071 66.1765 12.0676 66.4361 11.9887C66.6952 11.9041 66.9208 11.8139 67.1124 11.7181C67.3046 11.6165 67.4681 11.5263 67.603 11.4474C67.7385 11.3628 67.8626 11.3206 67.9754 11.3206C68.1216 11.3206 68.2344 11.3769 68.3138 11.4897L68.8295 12.1578C68.6152 12.4115 68.3729 12.6257 68.1019 12.8006C67.8316 12.9753 67.5439 13.1191 67.2395 13.2319C66.9351 13.339 66.6224 13.4151 66.3007 13.4602C65.9796 13.511 65.6662 13.5363 65.3618 13.5363C64.7644 13.5363 64.2087 13.4376 63.696 13.2403C63.1887 13.0373 62.7458 12.7413 62.368 12.3523C61.9962 11.9633 61.7031 11.4812 61.4889 10.9062C61.28 10.331 61.1755 9.6686 61.1755 8.91872C61.1755 8.32104 61.2686 7.76287 61.4549 7.24421C61.6464 6.72548 61.9168 6.27443 62.2666 5.89103C62.6217 5.50764 63.0502 5.206 63.5522 4.98611C64.0595 4.76059 64.6319 4.64783 65.2687 4.64783C65.7987 4.64783 66.2893 4.73522 66.7405 4.91C67.1918 5.07914 67.5809 5.33004 67.9074 5.66269C68.2344 5.99533 68.4881 6.4041 68.6689 6.88896C68.8546 7.36823 68.9477 7.91512 68.9477 8.5297C68.9477 8.81159 68.9166 9.00043 68.8546 9.09628C68.7931 9.19214 68.6803 9.24006 68.5168 9.24006H62.9768Z" fill="#1D1929"/>
<path d="M2.76796 17.7507V21.6495H7.52936V23.2479H2.76796V28.3306H0.780518V16.1523H8.37504V17.7507H2.76796Z" fill="#1D1929"/>
<path d="M11.8674 19.7043V28.3306H10.0491V19.7043H11.8674ZM12.1718 17.0995C12.1718 17.2629 12.138 17.418 12.0704 17.5646C12.0084 17.7112 11.9209 17.8409 11.8082 17.9536C11.6954 18.0607 11.5629 18.1481 11.4107 18.2158C11.2641 18.2778 11.1062 18.3088 10.9371 18.3088C10.7736 18.3088 10.6185 18.2778 10.4719 18.2158C10.331 18.1481 10.2069 18.0607 10.0998 17.9536C9.99268 17.8409 9.9053 17.7112 9.83768 17.5646C9.77561 17.418 9.74463 17.2629 9.74463 17.0995C9.74463 16.9303 9.77561 16.7724 9.83768 16.6259C9.9053 16.4792 9.99268 16.3524 10.0998 16.2452C10.2069 16.1325 10.331 16.0451 10.4719 15.9831C10.6185 15.9154 10.7736 15.8816 10.9371 15.8816C11.1062 15.8816 11.2641 15.9154 11.4107 15.9831C11.5629 16.0451 11.6954 16.1325 11.8082 16.2452C11.9209 16.3524 12.0084 16.4792 12.0704 16.6259C12.138 16.7724 12.1718 16.9303 12.1718 17.0995Z" fill="#1D1929"/>
<path d="M15.852 20.846C16.0381 20.6543 16.2298 20.4824 16.4271 20.3301C16.6301 20.1723 16.8443 20.037 17.0698 19.9242C17.2954 19.8114 17.535 19.724 17.7887 19.662C18.0424 19.6 18.3187 19.569 18.6175 19.569C19.0911 19.569 19.5055 19.6479 19.8607 19.8058C20.2216 19.9637 20.5232 20.1863 20.7656 20.4739C21.0137 20.7615 21.1998 21.1082 21.3238 21.5142C21.4478 21.9145 21.5098 22.357 21.5098 22.8419V28.3306H19.7V22.8419C19.7 22.2612 19.5647 21.8101 19.2941 21.4888C19.0291 21.1674 18.6231 21.0067 18.0762 21.0067C17.6703 21.0067 17.2925 21.0998 16.943 21.2858C16.5991 21.4718 16.2748 21.7256 15.9704 22.047V28.3306H14.1521V19.7043H15.2516C15.4996 19.7043 15.6575 19.8199 15.7251 20.051L15.852 20.846Z" fill="#1D1929"/>
<path d="M29.1391 21.827C28.8854 21.5 28.6063 21.2717 28.3018 21.142C27.9974 21.0123 27.6675 20.9474 27.3123 20.9474C26.6019 20.9474 26.0466 21.2096 25.6463 21.734C25.246 22.2527 25.0458 23.0223 25.0458 24.0428C25.0458 24.5728 25.0909 25.0267 25.1811 25.4044C25.2713 25.7765 25.401 26.081 25.5701 26.3178C25.7393 26.5546 25.9451 26.7265 26.1875 26.8337C26.4299 26.9407 26.7034 26.9943 27.0079 26.9943C27.4702 26.9943 27.8677 26.8957 28.2003 26.6984C28.5386 26.4954 28.8515 26.2106 29.1391 25.8442V21.827ZM30.9574 15.814V28.3306H29.8579C29.6155 28.3306 29.4604 28.215 29.3928 27.9839L29.2321 27.0451C28.8713 27.4679 28.4597 27.809 27.9974 28.0684C27.5407 28.3278 27.0079 28.4574 26.399 28.4574C25.9141 28.4574 25.4743 28.3616 25.0796 28.1699C24.6849 27.9726 24.3467 27.6878 24.0647 27.3157C23.7829 26.9436 23.563 26.4841 23.4051 25.9372C23.2529 25.3846 23.1768 24.7532 23.1768 24.0428C23.1768 23.4 23.2613 22.8052 23.4305 22.2583C23.6052 21.7114 23.8533 21.2378 24.1747 20.8375C24.4961 20.4316 24.8851 20.1158 25.3418 19.8903C25.8041 19.6592 26.32 19.5435 26.8894 19.5435C27.3969 19.5435 27.8282 19.6253 28.1834 19.7888C28.5386 19.9467 28.8572 20.1694 29.1391 20.457V15.814H30.9574Z" fill="#1D1929"/>
<path d="M38.8387 23.0449C38.8387 22.7404 38.7935 22.4585 38.7034 22.1992C38.6188 21.9342 38.4919 21.7059 38.3228 21.5142C38.1536 21.3168 37.9422 21.1646 37.6885 21.0574C37.4404 20.9447 37.1529 20.8883 36.8259 20.8883C36.1662 20.8883 35.6475 21.0772 35.2697 21.4549C34.892 21.8327 34.6523 22.3627 34.5509 23.0449H38.8387ZM34.5001 24.1612C34.5227 24.6518 34.5988 25.0774 34.7285 25.4383C34.8581 25.7935 35.0301 26.0895 35.2443 26.3263C35.4642 26.5631 35.7236 26.7407 36.0224 26.8591C36.3269 26.9718 36.6651 27.0282 37.0373 27.0282C37.3925 27.0282 37.6998 26.9887 37.9591 26.9098C38.2185 26.8253 38.444 26.7351 38.6357 26.6392C38.8274 26.5377 38.9909 26.4475 39.1262 26.3685C39.2615 26.284 39.3856 26.2417 39.4983 26.2417C39.6449 26.2417 39.7577 26.2981 39.8366 26.4109L40.3525 27.079C40.1382 27.3327 39.8958 27.547 39.6252 27.7217C39.3545 27.8965 39.067 28.0403 38.7626 28.153C38.4581 28.2601 38.1452 28.3363 37.8238 28.3814C37.5024 28.4321 37.1895 28.4575 36.8851 28.4575C36.2874 28.4575 35.732 28.3588 35.219 28.1615C34.7115 27.9585 34.269 27.6625 33.8912 27.2735C33.5191 26.8845 33.2259 26.4024 33.0117 25.8273C32.8031 25.2522 32.6987 24.5898 32.6987 23.8399C32.6987 23.2422 32.7918 22.684 32.9778 22.1654C33.1695 21.6467 33.4401 21.1956 33.7897 20.8122C34.1449 20.4288 34.5734 20.1271 35.0752 19.9073C35.5826 19.6818 36.1549 19.569 36.792 19.569C37.322 19.569 37.8125 19.6564 38.2636 19.8312C38.7146 20.0003 39.1037 20.2512 39.4307 20.5838C39.7577 20.9165 40.0114 21.3253 40.1918 21.8101C40.3779 22.2894 40.4709 22.8363 40.4709 23.4509C40.4709 23.7328 40.4399 23.9216 40.3779 24.0174C40.3159 24.1133 40.2031 24.1612 40.0396 24.1612H34.5001Z" fill="#1D1929"/>
<path d="M43.8833 21.3027C44.1539 20.7558 44.481 20.3273 44.8643 20.0172C45.2477 19.7014 45.7072 19.5436 46.2428 19.5436C46.4289 19.5436 46.6037 19.5661 46.7672 19.6113C46.9307 19.6507 47.0773 19.7127 47.207 19.7973L47.0801 21.1674C47.0575 21.2632 47.0209 21.3309 46.9702 21.3703C46.925 21.4042 46.863 21.4211 46.7841 21.4211C46.6996 21.4211 46.5783 21.407 46.4205 21.3788C46.2626 21.345 46.0963 21.328 45.9215 21.328C45.6678 21.328 45.4422 21.3647 45.2449 21.438C45.0532 21.5113 44.8785 21.6184 44.7206 21.7594C44.5683 21.9003 44.433 22.0723 44.3146 22.2753C44.1962 22.4782 44.0863 22.7094 43.9848 22.9688V28.3306H42.1665V19.7043H43.2236C43.4153 19.7043 43.5478 19.741 43.6211 19.8142C43.6944 19.8819 43.7452 20.0031 43.7733 20.1779L43.8833 21.3027Z" fill="#1D1929"/>
</svg>
