<svg width="32" height="32" viewBox="0 0 32 32" fill="none" xmlns="http://www.w3.org/2000/svg">
<path d="M0 15.7269V31.4538H15.7269H31.4538V15.7269C31.4538 1.39795 31.4398 0 31.2302 0C31.1043 0 28.5321 1.13234 25.4986 2.51631L19.9907 5.03261H15.8388H11.7008L6.17893 2.51631C3.14538 1.13234 0.517241 0 0.335508 0H0V15.7269ZM10.6663 10.205C11.7008 10.5964 12.959 11.7428 13.4483 12.7493C13.644 13.1547 13.8816 13.8816 13.9795 14.3709C14.3849 16.6356 13.1128 19.0261 10.9459 20.0885C10.219 20.438 9.99533 20.4799 8.66728 20.4799C7.31127 20.4799 7.12953 20.438 6.37464 20.0606C5.3122 19.5293 4.33364 18.5508 3.8164 17.5163C3.46691 16.7754 3.42497 16.5657 3.42497 15.2376C3.42497 13.8537 3.45293 13.6999 3.8863 12.8332C5.11649 10.3169 7.98228 9.1985 10.6663 10.205ZM24.2125 9.98135C27.7772 10.8201 29.4967 14.986 27.5396 18.0056C26.9105 18.9981 26.1696 19.6412 25.1631 20.1165C24.492 20.438 24.2125 20.4799 22.9962 20.4799C21.78 20.4799 21.5004 20.438 20.8015 20.1025C18.2852 18.9282 17.055 16.2022 17.8798 13.5741C18.7185 10.89 21.4585 9.32431 24.2125 9.98135ZM16.9012 18.1314C17.4883 18.5647 17.9916 18.9422 18.0195 18.9562C18.0894 19.0121 15.9646 22.7586 15.7968 22.8564C15.7409 22.8984 15.2516 22.1854 14.7344 21.2907C14.2171 20.3821 13.7139 19.5014 13.602 19.3336C13.4203 19.054 13.4622 18.9981 14.4967 18.1873C15.0978 17.726 15.643 17.3485 15.7129 17.3485C15.7828 17.3346 16.3141 17.684 16.9012 18.1314Z" fill="#1D1929"/>
</svg>
