<svg width="39" height="36" viewBox="0 0 39 36" fill="none" xmlns="http://www.w3.org/2000/svg">
<path d="M3.73746 33.3638V24.6365H4.79428V28.5229H9.44769V24.6365H10.5045V33.3638H9.44769V29.4604H4.79428V33.3638H3.73746ZM15.143 33.5001C14.5521 33.5001 14.0336 33.3595 13.5876 33.0783C13.1444 32.797 12.7978 32.4035 12.5478 31.8979C12.3007 31.3922 12.1771 30.8013 12.1771 30.1251C12.1771 29.4433 12.3007 28.8481 12.5478 28.3396C12.7978 27.8311 13.1444 27.4362 13.5876 27.155C14.0336 26.8737 14.5521 26.7331 15.143 26.7331C15.7339 26.7331 16.251 26.8737 16.6941 27.155C17.1402 27.4362 17.4867 27.8311 17.7339 28.3396C17.9839 28.8481 18.1089 29.4433 18.1089 30.1251C18.1089 30.8013 17.9839 31.3922 17.7339 31.8979C17.4867 32.4035 17.1402 32.797 16.6941 33.0783C16.251 33.3595 15.7339 33.5001 15.143 33.5001ZM15.143 32.5967C15.5919 32.5967 15.9612 32.4817 16.251 32.2516C16.5407 32.0214 16.7552 31.7189 16.8944 31.3439C17.0336 30.9689 17.1032 30.5626 17.1032 30.1251C17.1032 29.6876 17.0336 29.28 16.8944 28.9021C16.7552 28.5243 16.5407 28.2189 16.251 27.9859C15.9612 27.753 15.5919 27.6365 15.143 27.6365C14.6941 27.6365 14.3248 27.753 14.035 27.9859C13.7453 28.2189 13.5308 28.5243 13.3916 28.9021C13.2524 29.28 13.1828 29.6876 13.1828 30.1251C13.1828 30.5626 13.2524 30.9689 13.3916 31.3439C13.5308 31.7189 13.7453 32.0214 14.035 32.2516C14.3248 32.4817 14.6941 32.5967 15.143 32.5967ZM19.6441 33.3638V26.8183H20.6157V27.841H20.7009C20.8372 27.4916 21.0574 27.2203 21.3614 27.0271C21.6654 26.8311 22.0304 26.7331 22.4566 26.7331C22.8884 26.7331 23.2478 26.8311 23.5347 27.0271C23.8245 27.2203 24.0503 27.4916 24.2122 27.841H24.2804C24.448 27.503 24.6995 27.2345 25.0347 27.0356C25.3699 26.8339 25.7719 26.7331 26.2407 26.7331C26.8259 26.7331 27.3046 26.9163 27.6767 27.2828C28.0489 27.6464 28.235 28.2132 28.235 28.9831V33.3638H27.2293V28.9831C27.2293 28.5001 27.0972 28.155 26.833 27.9476C26.5688 27.7402 26.2577 27.6365 25.8997 27.6365C25.4395 27.6365 25.083 27.7757 24.8301 28.0541C24.5773 28.3297 24.4509 28.6791 24.4509 29.1024V33.3638H23.4282V28.8808C23.4282 28.5087 23.3074 28.2089 23.0659 27.9817C22.8245 27.7516 22.5134 27.6365 22.1327 27.6365C21.8713 27.6365 21.627 27.7061 21.3997 27.8453C21.1753 27.9845 20.9935 28.1777 20.8543 28.4248C20.7179 28.6692 20.6497 28.9518 20.6497 29.2729V33.3638H19.6441ZM32.8181 33.5001C32.1874 33.5001 31.6434 33.3609 31.186 33.0825C30.7314 32.8013 30.3806 32.4092 30.1334 31.9064C29.8891 31.4007 29.7669 30.8126 29.7669 30.1422C29.7669 29.4717 29.8891 28.8808 30.1334 28.3695C30.3806 27.8552 30.7243 27.4547 31.1647 27.1677C31.6078 26.878 32.1249 26.7331 32.7158 26.7331C33.0567 26.7331 33.3934 26.7899 33.7257 26.9035C34.0581 27.0172 34.3607 27.2018 34.6334 27.4575C34.9061 27.7104 35.1235 28.0456 35.2854 28.4632C35.4473 28.8808 35.5283 29.395 35.5283 30.0058V30.432H30.4828V29.5626H34.5056C34.5056 29.1933 34.4317 28.8638 34.284 28.574C34.1391 28.2842 33.9317 28.0555 33.6618 27.8879C33.3948 27.7203 33.0794 27.6365 32.7158 27.6365C32.3152 27.6365 31.9686 27.7359 31.676 27.9348C31.3863 28.1308 31.1632 28.3865 31.007 28.7018C30.8507 29.0172 30.7726 29.3552 30.7726 29.716V30.2956C30.7726 30.7899 30.8578 31.2089 31.0283 31.5527C31.2016 31.8936 31.4416 32.1535 31.7485 32.3325C32.0553 32.5087 32.4118 32.5967 32.8181 32.5967C33.0823 32.5967 33.3209 32.5598 33.534 32.4859C33.7499 32.4092 33.936 32.2956 34.0922 32.145C34.2485 31.9916 34.3692 31.8013 34.4544 31.574L35.426 31.8467C35.3238 32.1763 35.1519 32.466 34.9104 32.716C34.6689 32.9632 34.3706 33.1564 34.0155 33.2956C33.6604 33.432 33.2613 33.5001 32.8181 33.5001Z" fill="#1D1929"/>
<path fill-rule="evenodd" clip-rule="evenodd" d="M28.3819 9.19523V15.0374C28.3819 16.6105 27.1066 17.8858 25.5334 17.8858H24.489C24.017 17.8858 23.6345 17.5033 23.6345 17.0313V16.8414C23.6345 16.3694 24.017 15.9869 24.489 15.9869H25.5334C26.0578 15.9869 26.4829 15.5618 26.4829 15.0374V9.19523C26.4829 8.89949 26.3451 8.62064 26.1102 8.44099L20.4132 4.08448C20.0728 3.82414 19.6001 3.82414 19.2597 4.08448L13.5627 8.44099C13.3278 8.62063 13.19 8.89949 13.19 9.19523V15.0374C13.19 15.5618 13.6151 15.9869 14.1395 15.9869H15.1839C15.6559 15.9869 16.0385 16.3694 16.0385 16.8414V17.0313C16.0385 17.5033 15.6559 17.8858 15.1839 17.8858H14.1395C12.5663 17.8858 11.291 16.6105 11.291 15.0374V9.19523C11.291 8.30801 11.7044 7.47145 12.4092 6.93251L18.1062 2.576C19.1275 1.79498 20.5454 1.79498 21.5668 2.576L27.2638 6.93251C27.9685 7.47145 28.3819 8.30801 28.3819 9.19523ZM19.7414 9.53032H19.9313C21.3471 9.53032 22.4949 10.6781 22.4949 12.094V15.1323C22.4949 16.5482 21.3471 17.696 19.9313 17.696H19.7414C18.3255 17.696 17.1777 16.5482 17.1777 15.1323V12.094C17.1777 10.6781 18.3255 9.53032 19.7414 9.53032ZM20.7858 12.094C20.7858 11.622 20.4032 11.2394 19.9313 11.2394H19.7414C19.2694 11.2394 18.8868 11.622 18.8868 12.094V15.1323C18.8868 15.6043 19.2694 15.9869 19.7414 15.9869H19.9313C20.4032 15.9869 20.7858 15.6043 20.7858 15.1323V12.094Z" fill="#1D1929"/>
</svg>
