<svg width="32" height="32" viewBox="0 0 32 32" fill="none" xmlns="http://www.w3.org/2000/svg">
<rect width="32" height="32" fill="white" fill-opacity="0.01"/>
<rect width="24" height="24" transform="translate(4 4)" fill="white" fill-opacity="0.01"/>
<path fill-rule="evenodd" clip-rule="evenodd" d="M18.995 14.995C19.1825 15.1825 19.2878 15.4368 19.2878 15.702C19.2878 15.9672 19.1825 16.2215 18.995 16.409L14.402 21.002C14.2157 21.1846 13.9649 21.2862 13.7041 21.2849C13.4432 21.2836 13.1935 21.1794 13.009 20.995C12.8246 20.8105 12.7204 20.5608 12.7191 20.2999C12.7178 20.0391 12.8194 19.7883 13.002 19.602L16.902 15.702L13.002 11.802C12.8194 11.6157 12.7178 11.3649 12.7191 11.1041C12.7204 10.8433 12.8246 10.5935 13.009 10.409C13.1935 10.2246 13.4432 10.1204 13.7041 10.1191C13.9649 10.1178 14.2157 10.2194 14.402 10.402L18.995 14.995Z" fill="#42526E"/>
</svg>
