<svg width="32" height="32" viewBox="0 0 32 32" fill="none" xmlns="http://www.w3.org/2000/svg">
<rect width="32" height="32" fill="white" fill-opacity="0.01"/>
<rect width="24" height="24" transform="translate(4 4)" fill="white" fill-opacity="0.01"/>
<path fill-rule="evenodd" clip-rule="evenodd" d="M13.005 14.995L17.598 10.402C17.6896 10.3085 17.7988 10.2342 17.9193 10.1832C18.0398 10.1322 18.1692 10.1056 18.3001 10.1049C18.4309 10.1043 18.5606 10.1296 18.6816 10.1793C18.8026 10.2291 18.9126 10.3024 19.0051 10.3949C19.0976 10.4874 19.1709 10.5974 19.2207 10.7184C19.2704 10.8394 19.2957 10.9691 19.2951 11.0999C19.2944 11.2308 19.2678 11.3602 19.2168 11.4807C19.1658 11.6012 19.0915 11.7104 18.998 11.802L15.098 15.702L18.998 19.602C19.1806 19.7883 19.2822 20.0391 19.2809 20.2999C19.2796 20.5607 19.1754 20.8105 18.991 20.995C18.8065 21.1794 18.5568 21.2836 18.2959 21.2849C18.0351 21.2862 17.7843 21.1846 17.598 21.002L13.005 16.41C12.8175 16.2225 12.7122 15.9682 12.7122 15.703C12.7122 15.4378 12.8175 15.1835 13.005 14.996V14.995Z" fill="#A5ADBA"/>
</svg>
