<svg width="39" height="36" viewBox="0 0 39 36" fill="none" xmlns="http://www.w3.org/2000/svg">
<path d="M20.509 11.9635C20.509 11.4916 20.1264 11.109 19.6545 11.109C19.1825 11.109 18.7999 11.4916 18.7999 11.9635V13.6726C18.7999 14.1446 19.1825 14.5272 19.6545 14.5272C20.1264 14.5272 20.509 14.1446 20.509 13.6726V11.9635Z" fill="black"/>
<path fill-rule="evenodd" clip-rule="evenodd" d="M15.3818 6.93912C13.9428 7.29102 12.8181 8.51098 12.8181 10.0572V14.7901C12.8181 17.0678 14.7968 18.7999 17.0908 18.7999H22.2181C24.5122 18.7999 26.4908 17.0678 26.4908 14.7901V10.0572C26.4908 8.51098 25.3662 7.29102 23.9272 6.93912V5.98171C23.9272 3.62195 22.0142 1.70898 19.6545 1.70898C17.2947 1.70898 15.3818 3.62195 15.3818 5.98171V6.93912ZM22.2181 5.98171V6.83626H17.0908V5.98171C17.0908 5.68208 17.1422 5.39445 17.2367 5.12717C17.5887 4.13146 18.5383 3.41808 19.6545 3.41808C20.7707 3.41808 21.7203 4.13146 22.0722 5.12717C22.1667 5.39445 22.2181 5.68208 22.2181 5.98171ZM14.5272 10.0572C14.5272 9.28536 15.2267 8.54535 16.2363 8.54535H23.0727C24.0823 8.54535 24.7818 9.28536 24.7818 10.0572V14.7901C24.7818 15.9976 23.6997 17.0908 22.2181 17.0908H17.0908C15.6093 17.0908 14.5272 15.9976 14.5272 14.7901V10.0572Z" fill="black"/>
<path d="M5.85565 26.8183C5.80451 26.3865 5.59712 26.0513 5.23349 25.8126C4.86985 25.574 4.42383 25.4547 3.89542 25.4547C3.50905 25.4547 3.17099 25.5172 2.88121 25.6422C2.59428 25.7672 2.36985 25.9391 2.20792 26.1578C2.04883 26.3766 1.96928 26.6251 1.96928 26.9035C1.96928 27.1365 2.02468 27.3368 2.13548 27.5044C2.24911 27.6692 2.394 27.807 2.57013 27.9177C2.74627 28.0257 2.93093 28.1152 3.12411 28.1862C3.31729 28.2544 3.49485 28.3098 3.65678 28.3524L4.54315 28.591C4.77042 28.6507 5.02326 28.7331 5.30167 28.8382C5.58292 28.9433 5.85138 29.0868 6.10707 29.2686C6.36559 29.4476 6.57866 29.6777 6.74627 29.9589C6.91388 30.2402 6.99769 30.5854 6.99769 30.9945C6.99769 31.466 6.87411 31.8922 6.62695 32.2729C6.38263 32.6535 6.02468 32.9561 5.55309 33.1805C5.08434 33.405 4.51474 33.5172 3.84428 33.5172C3.21928 33.5172 2.67809 33.4163 2.2207 33.2146C1.76616 33.0129 1.4082 32.7317 1.14684 32.3709C0.888316 32.0101 0.742009 31.591 0.707918 31.1138H1.79883C1.82724 31.4433 1.93803 31.716 2.13121 31.932C2.32724 32.145 2.5744 32.3041 2.87269 32.4092C3.17383 32.5115 3.49769 32.5626 3.84428 32.5626C4.24769 32.5626 4.60991 32.4973 4.93093 32.3666C5.25195 32.2331 5.50621 32.0484 5.69371 31.8126C5.88121 31.574 5.97496 31.2956 5.97496 30.9774C5.97496 30.6876 5.894 30.4518 5.73207 30.27C5.57013 30.0882 5.35707 29.9405 5.09286 29.8268C4.82866 29.7132 4.54315 29.6138 4.23633 29.5285L3.16246 29.2217C2.48065 29.0257 1.94087 28.7459 1.54315 28.3822C1.14542 28.0186 0.946555 27.5427 0.946555 26.9547C0.946555 26.466 1.07866 26.0399 1.34286 25.6763C1.60991 25.3098 1.96786 25.0257 2.41673 24.824C2.86843 24.6195 3.37269 24.5172 3.92951 24.5172C4.49201 24.5172 4.99201 24.618 5.42951 24.8197C5.86701 25.0186 6.2136 25.2913 6.46928 25.6379C6.7278 25.9845 6.86417 26.378 6.87837 26.8183H5.85565ZM8.5989 33.3638V26.8183H9.60458V33.3638H8.5989ZM9.11026 25.7274C8.91424 25.7274 8.74521 25.6606 8.60316 25.5271C8.46396 25.3936 8.39435 25.2331 8.39435 25.0456C8.39435 24.8581 8.46396 24.6976 8.60316 24.5641C8.74521 24.4305 8.91424 24.3638 9.11026 24.3638C9.30628 24.3638 9.4739 24.4305 9.6131 24.5641C9.75515 24.6976 9.82617 24.8581 9.82617 25.0456C9.82617 25.2331 9.75515 25.3936 9.6131 25.5271C9.4739 25.6606 9.30628 25.7274 9.11026 25.7274ZM14.0886 35.9547C13.6028 35.9547 13.1852 35.8922 12.8358 35.7672C12.4863 35.645 12.1951 35.4831 11.9622 35.2814C11.7321 35.0825 11.5488 34.8695 11.4125 34.6422L12.2136 34.0797C12.3045 34.199 12.4196 34.3354 12.5588 34.4888C12.698 34.645 12.8883 34.78 13.1298 34.8936C13.3741 35.0101 13.6937 35.0683 14.0886 35.0683C14.617 35.0683 15.0531 34.9405 15.3968 34.6848C15.7406 34.4291 15.9125 34.0285 15.9125 33.4831V32.1535H15.8272C15.7534 32.2729 15.6483 32.4206 15.5119 32.5967C15.3784 32.77 15.1852 32.9248 14.9324 33.0612C14.6824 33.1947 14.3443 33.2615 13.9181 33.2615C13.3897 33.2615 12.9153 33.1365 12.4949 32.8865C12.0772 32.6365 11.7463 32.2729 11.502 31.7956C11.2605 31.3183 11.1397 30.7388 11.1397 30.057C11.1397 29.3865 11.2576 28.8027 11.4934 28.3055C11.7292 27.8055 12.0574 27.4192 12.4778 27.1464C12.8983 26.8709 13.3841 26.7331 13.9352 26.7331C14.3613 26.7331 14.6994 26.8041 14.9494 26.9462C15.2022 27.0854 15.3954 27.2445 15.5289 27.4234C15.6653 27.5996 15.7704 27.7445 15.8443 27.8581H15.9466V26.8183H16.9181V33.5513C16.9181 34.1138 16.7903 34.5712 16.5346 34.9234C16.2818 35.2785 15.9409 35.5385 15.5119 35.7033C15.0858 35.8709 14.6113 35.9547 14.0886 35.9547ZM14.0545 32.3581C14.4579 32.3581 14.7988 32.2658 15.0772 32.0811C15.3556 31.8964 15.5673 31.6308 15.7122 31.2842C15.8571 30.9376 15.9295 30.5229 15.9295 30.0399C15.9295 29.5683 15.8585 29.1521 15.7164 28.7913C15.5744 28.4305 15.3642 28.1479 15.0858 27.9433C14.8074 27.7388 14.4636 27.6365 14.0545 27.6365C13.6284 27.6365 13.2733 27.7445 12.9892 27.9604C12.7079 28.1763 12.4963 28.466 12.3542 28.8297C12.215 29.1933 12.1454 29.5967 12.1454 30.0399C12.1454 30.4945 12.2164 30.8964 12.3585 31.2459C12.5034 31.5925 12.7164 31.8652 12.9977 32.0641C13.2818 32.2601 13.6341 32.3581 14.0545 32.3581ZM19.7647 29.4263V33.3638H18.7591V26.8183H19.7306V27.841H19.8159C19.9693 27.5087 20.2022 27.2416 20.5147 27.0399C20.8272 26.8354 21.2306 26.7331 21.725 26.7331C22.1681 26.7331 22.5559 26.824 22.8883 27.0058C23.2207 27.1848 23.4792 27.4575 23.6639 27.824C23.8485 28.1876 23.9409 28.6479 23.9409 29.2047V33.3638H22.9352V29.2729C22.9352 28.7587 22.8017 28.3581 22.5346 28.0712C22.2676 27.7814 21.9011 27.6365 21.4352 27.6365C21.1142 27.6365 20.8272 27.7061 20.5744 27.8453C20.3244 27.9845 20.127 28.1876 19.9821 28.4547C19.8372 28.7217 19.7647 29.0456 19.7647 29.4263ZM30.3468 24.6365V33.3638H29.2899V24.6365H30.3468ZM33.335 29.4263V33.3638H32.3294V26.8183H33.301V27.841H33.3862C33.5396 27.5087 33.7725 27.2416 34.085 27.0399C34.3975 26.8354 34.801 26.7331 35.2953 26.7331C35.7385 26.7331 36.1262 26.824 36.4586 27.0058C36.791 27.1848 37.0495 27.4575 37.2342 27.824C37.4189 28.1876 37.5112 28.6479 37.5112 29.2047V33.3638H36.5055V29.2729C36.5055 28.7587 36.372 28.3581 36.1049 28.0712C35.8379 27.7814 35.4714 27.6365 35.0055 27.6365C34.6845 27.6365 34.3975 27.7061 34.1447 27.8453C33.8947 27.9845 33.6973 28.1876 33.5524 28.4547C33.4075 28.7217 33.335 29.0456 33.335 29.4263Z" fill="#1D1929"/>
</svg>
