<svg width="3" height="6" viewBox="0 0 3 6" fill="none" xmlns="http://www.w3.org/2000/svg">
<path fill-rule="evenodd" clip-rule="evenodd" d="M0.22782 1.46849C0.176693 1.41424 0.136096 1.34961 0.108386 1.27833C0.0806757 1.20706 0.0664062 1.13057 0.0664062 1.05332C0.0664062 0.97606 0.0806757 0.899572 0.108386 0.8283C0.136096 0.757027 0.176693 0.692391 0.22782 0.638146C0.331494 0.528043 0.471301 0.466309 0.61697 0.466309C0.762639 0.466309 0.902447 0.528043 1.00612 0.638146L2.63238 2.37319C2.68843 2.43299 2.73292 2.50415 2.76328 2.58254C2.79364 2.66094 2.80928 2.74504 2.80928 2.82997C2.80928 2.9149 2.79364 2.99899 2.76328 3.07739C2.73292 3.15579 2.68843 3.22694 2.63238 3.28675L1.0116 5.01589C0.907907 5.12617 0.767983 5.18802 0.622181 5.18802C0.476378 5.18802 0.336454 5.12617 0.232757 5.01589C0.18163 4.96164 0.141032 4.89701 0.113322 4.82573C0.085612 4.75446 0.0713425 4.67797 0.0713425 4.60072C0.0713425 4.52346 0.085612 4.44697 0.113322 4.3757C0.141032 4.30443 0.18163 4.23979 0.232757 4.18555L1.50414 2.82997L0.22782 1.46849Z" fill="#ADCACA"/>
</svg>
